<?xml version="1.0" encoding="UTF-8"?>
<svg xmlns="http://www.w3.org/2000/svg" xmlns:xlink="http://www.w3.org/1999/xlink" width="50px" height="50px" viewBox="0 0 50 50" version="1.1">
<defs>
<clipPath id="clip1">
  <path d="M 14.128906 16.203125 L 38.664062 16.203125 L 38.664062 33.796875 L 14.128906 33.796875 Z M 14.128906 16.203125 "/>
</clipPath>
</defs>
<g id="surface1">
<path style=" stroke:none;fill-rule:nonzero;fill:rgb(82.745099%,51.764709%,29.019609%);fill-opacity:1;" d="M 25 0 C 25.449219 0 25.898438 0.0976562 26.308594 0.285156 L 44.695312 8.085938 C 46.84375 8.992188 48.445312 11.113281 48.4375 13.671875 C 48.390625 23.359375 44.402344 41.082031 27.578125 49.140625 C 25.945312 49.921875 24.054688 49.921875 22.421875 49.140625 C 5.597656 41.082031 1.609375 23.359375 1.5625 13.671875 C 1.554688 11.113281 3.15625 8.992188 5.304688 8.085938 L 23.699219 0.285156 C 24.101562 0.0976562 24.550781 0 25 0 Z M 25 0 "/>
<g clip-path="url(#clip1)" clip-rule="nonzero">
<path style=" stroke:none;fill-rule:nonzero;fill:rgb(100%,100%,100%);fill-opacity:1;" d="M 38.160156 16.75 C 38.84375 17.433594 38.84375 18.546875 38.160156 19.230469 L 24.132812 33.257812 C 23.445312 33.941406 22.335938 33.941406 21.648438 33.257812 L 14.636719 26.242188 C 13.953125 25.558594 13.953125 24.445312 14.636719 23.761719 C 15.320312 23.078125 16.433594 23.078125 17.117188 23.761719 L 22.894531 29.53125 L 35.683594 16.75 C 36.367188 16.0625 37.480469 16.0625 38.164062 16.75 Z M 38.160156 16.75 "/>
</g>
</g>
</svg>
